<svg xmlns="http://www.w3.org/2000/svg" viewBox="0 0 1200 470" role="img" aria-labelledby="title">
	<title id="title">Premium hatmaking materials</title>
	<defs>
		<linearGradient id="bg" x1="0" x2="1"><stop stop-color="#d9d9d5"/><stop offset="1" stop-color="#777"/></linearGradient>
		<filter id="blur"><feGaussianBlur stdDeviation="1.2"/></filter>
	</defs>
	<rect width="1200" height="470" fill="url(#bg)"/>
	<g opacity=".75" filter="url(#blur)">
		<ellipse cx="142" cy="388" rx="265" ry="122" fill="#9d9d99"/>
		<path d="M280 140c75-82 166-70 273 36-101 36-215 28-341-24z" fill="#777"/>
		<path d="M427 92c80-59 165-44 255 44-76 47-170 48-282 2z" fill="#868682"/>
		<path d="M602 194c112-56 226-30 342 77-128 30-249 18-364-36z" fill="#8f8f8a"/>
		<path d="M790 122c82-46 168-33 258 39-75 40-161 42-258 6z" fill="#7b7b77"/>
		<rect x="650" y="330" width="360" height="24" rx="12" fill="#555"/>
		<rect x="675" y="365" width="385" height="22" rx="11" fill="#868682"/>
		<rect x="720" y="250" width="270" height="42" rx="20" fill="#b2b2ad"/>
	</g>
	<rect width="1200" height="470" fill="#000" opacity=".2"/>
</svg>
