<svg xmlns="http://www.w3.org/2000/svg" viewBox="0 0 1920 760" role="img" aria-labelledby="title">
	<title id="title">Dark heritage atelier texture</title>
	<defs>
		<linearGradient id="bg" x1="0" x2="1" y1="0" y2="1"><stop stop-color="#25211a"/><stop offset=".45" stop-color="#5d523e"/><stop offset="1" stop-color="#050505"/></linearGradient>
		<radialGradient id="glow" cx=".52" cy=".3" r=".55"><stop stop-color="#b9a887" stop-opacity=".52"/><stop offset="1" stop-color="#000" stop-opacity="0"/></radialGradient>
	</defs>
	<rect width="1920" height="760" fill="url(#bg)"/>
	<rect width="1920" height="760" fill="url(#glow)"/>
	<g opacity=".36" fill="none" stroke="#d8c79f" stroke-width="8">
		<path d="M0 135c190 116 380 116 570 0s380-116 570 0 380 116 780 0"/>
		<path d="M0 278c190 116 380 116 570 0s380-116 570 0 380 116 780 0"/>
		<path d="M0 421c190 116 380 116 570 0s380-116 570 0 380 116 780 0"/>
	</g>
	<rect width="1920" height="760" fill="#000" opacity=".48"/>
</svg>
