<svg xmlns="http://www.w3.org/2000/svg" viewBox="0 0 1920 1080" role="img" aria-labelledby="title">
	<title id="title">Editorial portrait wearing a dark luxury hat</title>
	<defs>
		<linearGradient id="bg" x1="0" x2="1" y1="0" y2="1">
			<stop offset="0" stop-color="#a39783"/>
			<stop offset=".55" stop-color="#5d574e"/>
			<stop offset="1" stop-color="#0b0b0a"/>
		</linearGradient>
		<radialGradient id="face" cx=".62" cy=".48" r=".36">
			<stop offset="0" stop-color="#b78363"/>
			<stop offset=".5" stop-color="#664536"/>
			<stop offset="1" stop-color="#15120f"/>
		</radialGradient>
		<linearGradient id="felt" x1="0" x2="1">
			<stop offset="0" stop-color="#050505"/>
			<stop offset=".5" stop-color="#202225"/>
			<stop offset="1" stop-color="#050505"/>
		</linearGradient>
		<filter id="grain">
			<feTurbulence baseFrequency=".9" numOctaves="3" seed="8" type="fractalNoise"/>
			<feColorMatrix values="0 0 0 0 0.08 0 0 0 0 0.08 0 0 0 0 0.08 0 0 0 .22 0"/>
			<feBlend in2="SourceGraphic" mode="multiply"/>
		</filter>
	</defs>
	<rect width="1920" height="1080" fill="url(#bg)"/>
	<ellipse cx="1085" cy="635" rx="315" ry="380" fill="url(#face)" opacity=".78"/>
	<path d="M760 1000c96-185 249-288 452-285 180 5 308 105 393 285z" fill="#050505"/>
	<path d="M742 214c43-171 147-244 319-244 174 0 281 80 327 244l49 235H693z" fill="url(#felt)" filter="url(#grain)"/>
	<path d="M510 430c87-91 278-142 572-146 300-3 529 45 665 146-72 73-257 105-557 102-320 1-547-35-680-102z" fill="#080808"/>
	<path d="M702 285h720l34 132H671z" fill="#323231" opacity=".92"/>
	<path d="M727 294h650" stroke="#737064" stroke-width="12" opacity=".35"/>
	<path d="M1330 274l74 9 30 128-82 5z" fill="#1f2020"/>
	<path d="M1365 298v87M1404 302v82M1365 342h39" stroke="#66635d" stroke-width="10" opacity=".6"/>
	<path d="M0 0h1920v1080H0z" fill="#000" opacity=".42"/>
	<path d="M0 670h1920v410H0z" fill="#000" opacity=".42"/>
</svg>
